# xmcd CD database file
#
# Track frame offsets:
#	150
#	16309
#	42852
#	66644
#	86647
#	107896
#	122903
#	142939
#	171176
#	188503
#	207520
#	229347
#
# Disc length: 3391 seconds
#
# Revision: 0
# Processed by: cddbd v1.5.2PL0 Copyright (c) Steve Scherf et al.
# Submitted via: CDex 1.51
#
DISCID=ab0d3d0c
DTITLE=Keith Urban - Love, Pain and the Whole Crazy Thing
DYEAR=2006
DGENRE=Country
TTITLE0=Got It Right This Time
TTITLE1=Once In A Lifetime
TTITLE2=Shine
TTITLE3=I Told You So
TTITLE4=I Can't Stop Loving You
TTITLE5=Won't Let You Down
TTITLE6=Faster Car
TTITLE7=Stupid Boy
TTITLE8=Used To The Pain
TTITLE9=Tu Compania
TTITLE10=God Made Women
TTITLE11=Everybody
EXTD=YEAR: 2006
EXTT0=
EXTT1=
EXTT2=
EXTT3=
EXTT4=
EXTT5=
EXTT6=
EXTT7=
EXTT8=
EXTT9=
EXTT10=
EXTT11=
PLAYORDER=
